/* XPM */
static char *_73699bd8158404cc1fc30c0e39e7657ts9TkVkSHd1BiGAW[] = {
/* columns rows colors chars-per-pixel */
"64 64 252 2 ",
"   c #3D210D",
".  c #5A2908",
"X  c #593718",
"o  c #512C10",
"O  c #662B03",
"+  c #752B01",
"@  c #6A3309",
"#  c #7C3403",
"$  c #773908",
"%  c #693B15",
"&  c #773C13",
"*  c #523C22",
"=  c #6E3F20",
"-  c #6E431B",
";  c #73451C",
":  c #7C4A1C",
">  c #7A4417",
",  c #7C420C",
"<  c #5B4426",
"1  c #5C4B33",
"2  c #684928",
"3  c #774C25",
"4  c #795329",
"5  c #6C5437",
"6  c #795A37",
"7  c #6A5031",
"8  c #7D623D",
"9  c #765D43",
"0  c #6D5C46",
"q  c #7B6547",
"w  c #843B03",
"e  c #873A05",
"r  c #913C07",
"t  c #A73E00",
"y  c #85430C",
"u  c #8C440C",
"i  c #8B4609",
"p  c #954B0C",
"a  c #9C4B0C",
"s  c #974606",
"d  c #99520E",
"f  c #8B4B14",
"g  c #864918",
"h  c #924B14",
"j  c #984C16",
"k  c #89521C",
"l  c #945215",
"z  c #9C5413",
"x  c #94531C",
"c  c #9C581A",
"v  c #A64B07",
"b  c #B44C05",
"n  c #A3530D",
"m  c #AC550B",
"M  c #B3540C",
"N  c #BB590A",
"B  c #A35414",
"V  c #AC5B13",
"C  c #AC5C1B",
"Z  c #A65718",
"A  c #B55B13",
"S  c #BA5B13",
"D  c #B25C1C",
"F  c #BB5D1A",
"G  c #B55513",
"H  c #AC4C11",
"J  c #AA621B",
"K  c #BB6313",
"L  c #B3631B",
"P  c #BB631C",
"I  c #B76518",
"U  c #834E23",
"Y  c #835225",
"T  c #8C5424",
"R  c #83552B",
"E  c #8C5C2C",
"W  c #895829",
"Q  c #955A25",
"!  c #9B5B24",
"~  c #945C2B",
"^  c #965826",
"/  c #855C33",
"(  c #8B5D33",
")  c #835D38",
"_  c #955D32",
"`  c #A35D23",
"'  c #A85E26",
"]  c #B25E22",
"[  c #9B632C",
"{  c #95612C",
"}  c #886339",
"|  c #9B6433",
" . c #9C6C3B",
".. c #966738",
"X. c #9A703D",
"o. c #A4642C",
"O. c #AB642B",
"+. c #A96627",
"@. c #B46525",
"#. c #BB6423",
"$. c #BD6B24",
"%. c #B46B2C",
"&. c #BC6C2B",
"*. c #B46629",
"=. c #BB722C",
"-. c #A46B34",
";. c #A36D3B",
":. c #A96935",
">. c #B46C33",
",. c #B96D34",
"<. c #A8723A",
"1. c #BC7334",
"2. c #B3733C",
"3. c #B9763A",
"4. c #C3590A",
"5. c #C45D15",
"6. c #C46314",
"7. c #C5641C",
"8. c #CC6B1B",
"9. c #C96719",
"0. c #D46A1A",
"q. c #D26B17",
"w. c #C36D2B",
"e. c #C76A23",
"r. c #CC722B",
"t. c #C77328",
"y. c #D77529",
"u. c #C47433",
"i. c #CC7533",
"p. c #C1763B",
"a. c #C47A3C",
"s. c #CB7C3C",
"d. c #C97934",
"f. c #D57B35",
"g. c #CA6D2B",
"h. c #E27828",
"j. c #876947",
"k. c #956C45",
"l. c #8B724E",
"z. c #94734C",
"x. c #9B7348",
"c. c #8B7457",
"v. c #9D7B55",
"b. c #9B7D5B",
"n. c #967756",
"m. c #836A50",
"M. c #A47344",
"N. c #AD7543",
"B. c #AD7B45",
"V. c #A7794B",
"C. c #B47B44",
"Z. c #BC7C44",
"A. c #B27D4C",
"S. c #B77946",
"D. c #A27B53",
"F. c #A87C55",
"G. c #AA7247",
"H. c #8E7A63",
"J. c #C37D42",
"K. c #C77D44",
"L. c #D27F42",
"P. c #CB813B",
"I. c #DA843A",
"U. c #E1843C",
"Y. c #9C825D",
"T. c #BC834D",
"R. c #B6824B",
"E. c #AB8254",
"W. c #A3825B",
"Q. c #AA845D",
"!. c #A9875B",
"~. c #B48353",
"^. c #BA8453",
"/. c #BB8B5B",
"(. c #B6885B",
"). c #B58955",
"_. c #9A8568",
"`. c #998975",
"'. c #AC8A63",
"]. c #AC8D6A",
"[. c #A68866",
"{. c #B38C63",
"}. c #BB8E64",
"|. c #B48C67",
" X c #AC916C",
".X c #B4926C",
"XX c #BC946C",
"oX c #B89266",
"OX c #A78E72",
"+X c #AB9377",
"@X c #B49572",
"#X c #BD9A73",
"$X c #B49B7B",
"%X c #BB9D7B",
"&X c #B99773",
"*X c #BDA17C",
"=X c #C4834B",
"-X c #CA844A",
";X c #C98648",
":X c #D68847",
">X c #C38B56",
",X c #CC8B53",
"<X c #C48C5B",
"1X c #C68855",
"2X c #D38E54",
"3X c #CC935D",
"4X c #C4925D",
"5X c #D59359",
"6X c #DE904B",
"7X c #E29553",
"8X c #C39364",
"9X c #CB9463",
"0X c #C3956B",
"qX c #CB9B6C",
"wX c #C6996B",
"eX c #D59A68",
"rX c #C49C73",
"tX c #CA9D72",
"yX c #C59E7A",
"uX c #CB9467",
"iX c #C3A27C",
"pX c #CCA47B",
"aX c #C9A276",
"sX c #D6A679",
"dX c #D7A16B",
"fX c #E4A873",
"gX c #B79D82",
"hX c #AF9B83",
"jX c #BBA587",
"kX c #BBAB94",
"lX c #BCB19E",
"zX c #AFA495",
"xX c #C3A583",
"cX c #CCAA85",
"vX c #CCAC8A",
"bX c #C5AA89",
"nX c #D4AC84",
"mX c #D8AD85",
"MX c #CCB18D",
"NX c #D7B28B",
"BX c #C6AF92",
"VX c #CCB293",
"CX c #CAB69A",
"ZX c #D3B493",
"AX c #D7BA99",
"SX c #E1B68D",
"DX c #D4BEA3",
"FX c #CDBBA3",
"GX c #D8C3A8",
"HX c #D9CBB6",
"JX c #E4CFB6",
"KX c #E8DDCC",
/* pixels */
"% g & , > g u ..| & y Q Q ! =.u.@.+.+.R.>XC @.=.XXz l C l Z J L ;XC.l Z R. .p J c l f , $ | =.J +...l f k c c l > E : o % : 3 & ",
"O . . # y @ # Q > O O ; k +.+.c g Q l x.R.I c -.{.d I L @.P.=.L R.,X$.l C. .+ i s s # # O ;.t.L $.} $ f f y f l y 3 X . , - E $ ",
"Y.q c.H.b.`.$XCX$X$X+X$X X[.OX&XjX+X+XkX*X%X@XcXjXW.!.{.&X&X X*XCX%X#XjXGXjX_.[..X X X'.jXCX{.XX!._.l.6 l.8 7 7 x.b._.oXW.[.Y.6 ",
"2 v.F.} | b.D.;.B.T.3X2.:.{.rX&.=.T.iX! %.C.3.>.%.B.@X-.<.N.iXR.{ -.<.3.2.;.{.).3.C.'.4X2... .2.:.-.} E.2.<.<.v.B.;.| 2.;.3 3 } ",
". % O + # 3 & + w a A B V <.R.I V 3.XXB L u.t.t.d.L }.$.C C B.i s n a w i s { +.m s Q +.a z z V m # % | z u @ / x y f i # O $ k ",
"X 1 Y Y E c.q } ...... .[ b.Q.B.V.%XkXQ.B.~.~.A.C.T.jXE.~.wXVXz.M.E.).v.l...&X[...<..X'.<./.XX/.~.n.b.n.W X.} Y.} 2 2 2 2 3 W k.",
"c.b.Q.'. XoX0X.XoX3X>X8X0XVX4XA.W.XXXX}.bXjX{.XX*XXX#X&XrX/.<XA.*X|.V.>XpXxX0XXX@X(./.}.[.#X/.n.E. XM.M. .<.M.B...8 6 4 6 8 z.x.",
"@ @ @ O @ C V l x B a L P.=X7.A t.P #.K >X&.7.I -.B K K t.V n v 2.f w v %.%.v K K m s s z +.V y z <.P I P V V i @ : O @ # y y $ ",
"2 X % 4 Q Q ~ V.) & 3 ..;.k.Q ~ -.Q -.:.'. .` l z.2.=.=XZ.<.;.=.aXE.~.:.aX4XZ %.+.Z Q c  .B.1.B.X. X2.-.2.-.[ g E k.3 k k 4 ; @ ",
"q c.Y.W.Q.OX+XxX+X X*X#XF.b.j.D.$X].OX+XbXxXyXyXpXcX$XQ.~.T.~..X(.(.0XA.8X3XR.+X&XxXxX*XbXoXb.].pXwXb.OX{.D.z.n.!.!.!..X].l.8 j.",
"X { $ & f x.j e u c C V v N.-XV u.-XXX@.$.#.D #.e.g.,X7.6.6.i.&.v H S S M M P >Xa.d.=.sX:XZ n n P L $.V.z h p 4 f y , y l g f E ",
". < @ & > 6 & & O O $ u r  .M.D C <.}.m A P P #.P w.3X:Xs.f.P.<X>.%.1.>.] C Z rX3.1.<.XXP.;XZ.T.;.Q <.W.o.+.o.z.R k k g : : > W ",
"1 q j.n.[.`.l.j.l.n.n.m.c.kXlX$X%XGXCX[.[.'.$XjXkXxXAXvXcXsXsXsX(./.>X=XB.XX}.%X{..XxXiX@X*XcXpX0XkXyX$X#X{.].W.j.q 5 7 } 6 9 Y.",
"T = > g g ^ h D.x.` ! k.rX-X6Xs.p.P.p.>.VXfXfXeXZXdXK #.e.t.e.6.$.a.9.9.w.Z.F G H M H 5.&.:.v v p rXB u Z h p u e 3 o.` f : E ^ ",
"@ . . @ r a e 3 k a u ^ | b 8.y.y.6.6.M sX5Xi.i.aX~.A m S G V A a.K.7.F %.}.w.F Z Z *.D u ..Z Z | XXz Z i.L #.D j ..u.@.: 3 : w ",
"< * 6 4 ; 3 j.+XF._ x.n.@XT.A./.}./.T.>XCXcXrXsXGXlX_.{.0XrXVXcXmXsX,X9XqXNXqX{.{.{.oXY.`.jX].W.OX].k.n.) } k.z.} _.W.D.'.].j.k.",
"5 z.[ g f z.^.,X,X,XeX3X>X{.jXa.3.<XBX1X3XeXeXdXeXK.xX0XO.w.3XqX6.r.I.f.f.y.u.4XI.y.P.qXK.Z.i.u.O.V B k.k.3 o.k.; & g f g & w 3 ",
"~ ..# u w Q A q.8.9.7.9.4.c yXS e.&.sX:Xs.e.S 5.i.e.9XT.e.4.3.=XN 6.8.8.t.9.d.3X0.y.d.=Xv v M M Z C v ..%.H Z ( @ w + # # + + % ",
"x.c.- Y > c.V.x.k.Q.[.Q.N.&XlX=XsXpXCXvXiXrXZXNXtX}.HXGXZXSXAXBXXXwXeXsXpXqX#XbXNXZXiXBX0XtXrXsXiX}.'.jX(.A.V.OXv.k.x.&XyX{.D.F.",
"m._.n.D.].#XD.v._.F.(.=XjXZX8XrXsXyXsX<XBXAXeX9XaXGX,XJ.s.>.1.-X5XVXpXdXeXpXcX:XeXsXSXSXmXNXpX1.1.<.].F.^.G.F.M.6 j.].k.R U / g ",
"x.! x ] &.,.u.` M.s m b }.S.e.6.7.p.I.F >X-Xb N ,./.t M M v 4.9.6.C.;X8.e.C.9X0.9.9.0.f.9.G 3.N G V | s Z G e j + O 3 # + # > # ",
"m.R -.o.Q >.Z.E.[.2.>XS.jX+X'.2.2./.0X>XvXrXXX|.'.xXT.=X-XdXqX=Xa.VXiXXX}.jXVXZ.A.~.N.Z.3.~.XX%.,.o.v.~ ~ ;.V.V.~ W j.: E  .} : ",
"E.z.b.c.D.D.`.%XtX&X%X#XqX&X%XhXV.D.|.jX0X8XqXqXtXvXNXGXsXtXrXHXGXsXSXsX9XeX3X8XiXeXeX>XiXZXZXbXrXN./. .j.V.N.k.) n.j.3 ..x.W W ",
"z n k T C B x.Z.m v A 9.e.M ;X/.r H D ,X0.8.0.8.9.A 6.eXr.7.N eXeXq.h.h.y.y.8.f.2X0.0.4.4X@.H D P 7.F V :.Z.>.p ! : e # + + # w ",
"p i ; g C Z z.Z.V w.6XI.d.:XeX%X:.J.Z.9Xh.#.@.7.t.t.u.yX>.1.1.pX>X9.w.&.i.s.r.P.8Xw.d.&.cX,X&.1.&.D C C B.=XZ.o.W ..y & ' x f g ",
"j.z._.+XD.@XkXVX%X[.%XbXbXvXGXKXJXJXJXDXsXxXBXjXxXGXGXHXFXDXGXGX%X|.jXnXtXpX*XiXvXbXMXvXGXVXxXnXtXrXiXiX#Xz.v.D.z.].].&X%XQ.V.l.",
"Y.| | | ~ ;.1X<X+X0X1XS.xXM.C L.s.d.w.#.,.ZXL.:XL.AX,Xs.2X:Xi.s.i.Z.3XI.I.y.sX5Xy.:Xf.i.w.C ;.@.L P ` ( g e & ~ @ @ 3 { y f f ..",
"/ # Z Z c c o.k v.u.D C ^.o.M G M D r.e.#.9Xr.F b bX-Xe.y.e.0.y.y.-X;Xy.y.q.3X:X9.0.0.8.7.9.#.n m v B U g ! e g O O % T a p u [ ",
"c.R 4 ( { ../ 3 _.#XXX#XjX[.|.0XyXXX>XZ.S.vXmXnXmXKXAXuXeXrX0XqXaXGXGXeXeX1XCXmXeXeX5X=X=X9XcXXX|.|.F.jXBXbXZXcX$X[.$Xl.W R 6 v.",
"b.v.c.q 9 j.n.$Xn.n.V.G.~.<X9XCXsXsX/.BX4X:X7X6X7XI.f.,X0X,X-X/.dX:X;X2X5X2X2X,XpXuXuX<XvX5X,X,X,XZ.:.:.v.(.C.V.k.Y.R.C.| [ Q E ",
"O + x.! e j o.M.+ s v v s F G wXf.7.g.mX-XI.y.0.0.0.q.t.p.N 4.u.5X4.4.4.9.0.8.6.u.F 5.G 1X5.9.5.M M G e Y ^.] j O k s a a p p y ",
"% . 9 ;.x g ( D.g T ;._ ` *.:.yXK.u.i.NX9X:X:XI.6X7X6XdXAXsXeXnX0X=.-X=X-Xu.t.%.~.>.1.2.qXi.w.` +.@.C h 6 k.x ^ ; } T g k T ; W ",
"0 n.gX$Xb.D.Q.'.OXxXgXgXgXVXyXBXvXvXZXJXJXGXAXnXsXNXGXcXZXvXvXNX8XbXcXsXsXFXFXiXAXZXZXAXAXiXiXrX[.E.Q.6 k.3 % 3 ..E.n.} .. .z.W.",
"W.p.+.>.O.O.&.a D.J.D ' 1X'.&.:X,.#.#.2.<XaX5XfX7XP./.,.-XG b 8.7.1Xr.e.5.eX1X,.i.f.:Xi.#.S.3Xw.j $.A.` D P $.$.B p Y c B a k T ",
"z.^ g T T k f u '.}.,.1.^.yX2X:X-Xs.p.1X0XXX2X7X6X;XtX-XeX:Xw.e.7.9Xf.f.r.uXA.s.i.i.K.u.#.<.<Xf.' ] ;.f i n V d p y 3 x z z k W ",
"_.j.c._.c.OXH.j.@XOX+X XOXgX'.#XXX'.'.+X{.MXNXsXNXmXZXGXCXVXDXMXiXZXtX0XXXVXxXF.|.yX'.XX[.[. X~./.D.[.v.z.D.D.k.6 7 q 5 5 4 7 q ",
"p J [._ U T .XA.Z x c *.*.A /.^.P w.-XpXt.w.I.6X;X:XI.ZXAXrX9XmXtXf.L.s.f.i.f.2.sX-XN.=XrX>X2XJ.1.>.C.2.!.M.~ Q 4  XN.;.;.;...( ",
"n L b.g ` ~ D.o.m n B P r.9.Z.Z.N 9.&.T.5.e.8.y.e.s.8.dXmXsXeXeX3.9.7.5.7.e.4.D 9Xr.g.g.<Xw.i.i.r.w.p.w.C.g # # ; T.S A s s a a ",
";.E.+X5 j.l.OXn.( D..XQ.D.(.MXjXA.F.@XHXrXbXAXmXnXpXtXCXAXVXnXGXXX3.S.<X8XZ.Z..X$X^.N.^.*XA.<.N.3.3.2.:.E...T - 9 ).C %.@.@.Z Z ",
"k.~ ~ E T R _ } +X|.F.'.kXgXrXtXuXcXNXmXAXAXtXtXZXGX1X=X3X9X,X3X3XAX9XA.=XS.ZXeX9XwXpXcXaXMXBX'.W.v.@X(.M.N. .M.V.} 2 3 3 7 7 R ",
"o + u a n u e i V.` N.<.(.' V G S P F v o.1.M S #.A.t v ] #.F F F 3Xi.w.i.p.eX5.5.0.h.f.y.:X<X4.P C T.t.e.7.F m w T 4 u w &  .B ",
"5 X % ~ / 4 6 Q. X4 l.v.OX_ ! :.O.O.+.Z Q.rX,.-X3X}.v O.S.Z.2.' Z.vX<X,.,.^.dXy.r.i.:X6XU.2X^.S P 1.~.s B C D B j | R a h & ;.C ",
" XH.j.) z.$XjX'.~./ ) n.+XjXhX%XjXxXvXVXAXJXGXGXGXGXFXvXpXcXiX@XD.vXnXnXmXtXXX&XbXyXcXtXaXXX(.^.<XwX{.M.v.W.x.( k.z.k.k.X...} 2 ",
"O j.! ` Z ;.Q.n C +.Z C L =XN.c O.p.dX2Xr.r.f.:X;XK.ZXC.m h Z 8Xw.e.5.y.5.G a xX7Xf.i.i.-XR.P t.P $.I C -.A.u $ k ~ y l I C L Z ",
"@ 2 T Q ! ..(.=.%.' B #.P T.-.j *.d.<X:Xf.I.:X:X-XZ.iX&.N G A /.S 5.y.e.F 5.H 0Xy.8.y.y.s.R.N 6.K A K v C >.s e f [ w s n n B n ",
"* 5 j.9 6 5 q 6 OXjXxXxX#X%XgX@X&X%XbX$XF.~.8X&X*XCXHXtXZ.3XuXFX.X(.XX}.0XqXtXCX0X8XsXqXiXxX3XT.R.~.C.V.Q.E.B.M.x.E.B.B.B.x.} 6 ",
"> & : g : : > 5 ].F.|.kX~.1.3.>.:.2.1.J.XX3.>.*.S.{.Z.,X1X5X,XK.}.xX2.S.2.xXeX2X5XAXsX-X,X=X9XQ.T o.-.rX-Xs.p.%.O.%.C.( g g 3 k.",
"$ & & y y f u 4 Q.^.}.gX` 4.6.N K S S 4.<X#.M v ' u.N N 4.5.5.S @.0XG G G }.I.f.0.eXa.y.y.8.I.V.s m B S.t.7.P V A A +.& # + @ E ",
"< 2 < 4 } k.V.W.&XW.@XBXQ.| A.^.A.~.A.C.$XS.<.G.|.(.' 2.3.J.A.S.~.BX_  ._ jX2Xs.d.nXpX3X,X=X9XXXc o.;.W.3.>.o.-.~ k x...! T } j.",
"R R x +. . .! -.;.B.N.A.b.%X{.yXZXZX9XtXmXcXnXSXAXVXvXNXZXvXmXsXsXpXaXtXrXiXuX9X3X9XaXeX4X8XZ.<.}.qX^.E.M.;. .} X...../ ) k.../ ",
"T T A 8.Z ! w w r s e + & :.e r 3.a.b b 4.4.4.4.e.,.N 4.7.:X0.h.0.y.h.h.:Xs.9.8.y.y.r.9.&.a.M M +.>.A V V A n y i h # w $ > e w ",
"..{.A.~.(.Y.v.E.V.M. ...z.E.o.O.(.v.| S.Z.1X=Xa.^.0Xp.p.3XXXB.S.-X,X,X3XqX9Xs.1.=X,X>XS.B.#XA.S.(.V.+.o.E { ! > - 3 ; ; 3 6 : & ",
"k | C...-.o.M.;.+.c V.].| N.A.E.}.^.jX^.Z.=XrX{.N.^.rXbXqX/.~.@XT.J.=X,X;X=X2.!./.T.T./.3.:.o.[ | ! | j.E ~ U 5 ; : T T R Y 2 5 ",
"Z p s i p B g p I M o.-.m &.d.i.i.e.8X#.q.q.1.&.9.r.%.R.4.9.U.T.q.0.8.6.6.6.P N.r.e.7.Z.y.y.w.L A F &.X.Z B u U j a B a p p p R ",
"> > ; % X > / k x l ;.M.o.N.A.-.1.>.!.%.p.p.~.N.@.&.F..X>.J.,X{.d.p.p.s.d.u.+.W.J.p.;XD.M.<...{ E [ ( l.! ! T 2 2 % k T Y Y ~ 8 ",
"* 6 k.j.m.c.l.6 4 / D.D.W.[.x.x.k.X.N.;.-.R.E.N.[.kXA.A.V.].M.A.C..X#X^.^..X%X}.#X(.A.x.b._.j./ R 8 7 3 E T : W } 4 2 2 2 4 / { ",
"  ( Q x [ W & & g f y + g W a C ` c K K 8.8.9.K +.cXG S A <.m S 5.;.o.M M ! C.g.&.@.C ` Z E Q C C o.l n p z B l i k k p w g f B ",
"o 3 { { T 4 ~ ~ ~ ..| ! 3 R c c T k V I K K K K J oX$.P L M.C &.e.E +.A D ~ M.#.&.&.` o.o.( ~ z @...k B z z z x f % k l y ; > y ",
"7 < } } } j.j.l.Y._.Y.n.Y.Y.]._._.OX'..X'.(.{.].W.jXXX|.Y.].n.x.b.OX@XXX].OX[.n.l.q z.l.q q m.z.x.q j.v.6 7 2 2 8 6 2 7 2 < 1 7 ",
"X o o . . @ . 2 % & x 4 R g : ! o.T U x.A.1.&.B.F.O.+.+.<.@.t.%.v.[ ^ ! ` ` o.| E.o.>.;.q R ; T : U : ; 6 3 ; X 2 > % % % % % - ",
"@ . O O O O O 2 @ # p W ; & $ e u $ w : %.8.8.O.o.e.A B o.9.6.P | e r s v s a u | P $.O.7 Q ! x ( : k ( j.T T Y 6 : Y ; % % % % ",
"o o   o o o * q 6 / W q b.k.( k./ E ..q 6 R R 5 j.~ T ( } [ :.| j.W T ~ Q T T R 9 R / 6 1 / ; c.lX`.X _.hXH.`.`.`.H.H.`.< X * * ",
": 4 2 2 2 6 8 }  . .;.| ;.} 6 / R } l.{ W j.c.} ..} OXD.x. .k...{ z.OXx.V.D._.B.R.M...} 4 6 5 b.+X_.1 _.m.q q 0 q 1 q c.X < * X ",
", , X @ . % - y i u d l B Q % y y > E a s o.N.n B x V.n a V a p i > { v V c E I K n V C , : Y x x : X 3 . % . $ . o - & % % X X "
};
