/* XPM */
static char *_aac615f286446d2f098de86b30faf78SYFuVTXe1bvWUsRu[] = {
/* columns rows colors chars-per-pixel */
"64 64 256 2 ",
"   c #9B877C",
".  c #7F6D61",
"X  c #B19E8F",
"o  c #816F63",
"O  c #A28879",
"+  c #B3A193",
"@  c #B59B84",
"#  c #857469",
"$  c #AB907A",
"%  c #A48B7B",
"&  c #3A2E26",
"*  c #A18E82",
"=  c #A79485",
"-  c #A88E78",
";  c #A59285",
":  c #A98F80",
">  c #B7A293",
",  c #BAA798",
"<  c #AC998B",
"1  c #1D1814",
"2  c #98867A",
"3  c #AF9787",
"4  c #9C8A7F",
"5  c #594C43",
"6  c #BBA28A",
"7  c #AE957E",
"8  c #978479",
"9  c #2F251E",
"0  c #C6B4A7",
"q  c #47382F",
"w  c #A78D7E",
"e  c #8E7A6E",
"r  c #605249",
"t  c #AB9182",
"y  c #B6A495",
"u  c #9F8C80",
"i  c #8F7D73",
"p  c #927E72",
"a  c #948276",
"s  c #927A6A",
"d  c #7A6453",
"f  c #75645A",
"g  c #211B18",
"h  c #42352B",
"j  c #B2977F",
"k  c #BAA899",
"l  c #A48973",
"z  c #AE9B8B",
"x  c #362A24",
"c  c #3C3028",
"v  c #BBAA9B",
"b  c #957C6D",
"n  c #827165",
"m  c #C5B0A1",
"M  c #A08676",
"N  c #463C36",
"B  c #9B806A",
"V  c #89776C",
"C  c #A99587",
"Z  c #A3856B",
"A  c #8D786B",
"S  c #7E6A5E",
"D  c #68594F",
"F  c #977F70",
"G  c #AE9B8E",
"H  c #76675C",
"J  c #38312B",
"K  c #BFA690",
"L  c #B19789",
"P  c #150F0B",
"I  c #7C6C61",
"U  c #51453D",
"Y  c #A78D77",
"T  c #2D231E",
"R  c #AB9788",
"E  c #9B8272",
"W  c #1A1411",
"Q  c #9D8474",
"!  c #988171",
"~  c #B29A8A",
"^  c #3C332D",
"/  c #706259",
"(  c #877366",
")  c #7A6659",
"_  c #6D5E54",
"`  c #846E60",
"'  c #9F8A7D",
"]  c #7B675C",
"[  c #716055",
"{  c #6E5A4F",
"}  c #5D4A3A",
"|  c #BAA087",
" . c #5D4F46",
".. c #AC937C",
"X. c #413932",
"o. c #AE9485",
"O. c #A88F7E",
"+. c #B9A598",
"@. c #3D3630",
"#. c #948378",
"$. c #766052",
"%. c #897A6E",
"&. c #615045",
"*. c #6A584C",
"=. c #79695F",
"-. c #4E423A",
";. c #BDA48E",
":. c #302721",
">. c #9F836B",
",. c #362C25",
"<. c #BEAB9E",
"1. c #B8A092",
"2. c #4C3B30",
"3. c #857062",
"4. c #8D7466",
"5. c #9D8677",
"6. c #887568",
"7. c #523F33",
"8. c #4C3F36",
"9. c #56463B",
"0. c #302A24",
"q. c #A49184",
"w. c #CCBAAD",
"e. c #826650",
"r. c #8B705A",
"t. c #C1AEA0",
"y. c #947863",
"u. c #8C7668",
"i. c #BAA495",
"p. c #9A8577",
"a. c #938073",
"s. c #705D51",
"d. c #534235",
"f. c #B1947C",
"g. c #A38F83",
"h. c #B69E90",
"j. c #B3A090",
"k. c #D2C4B7",
"l. c #B29D8C",
"z. c #251E1A",
"x. c #A9978A",
"c. c #907C6F",
"v. c #836B5B",
"b. c #8F8076",
"n. c #988374",
"m. c #6E6056",
"M. c #C0AA9A",
"N. c #62544B",
"B. c #B79E87",
"V. c #A79489",
"C. c #8D7C72",
"Z. c #A18C7E",
"A. c #89786D",
"S. c #86756C",
"D. c #A48E7D",
"F. c #695C52",
"G. c #9F8D82",
"H. c #847367",
"J. c #64564C",
"K. c #A68B77",
"L. c #B49D8E",
"P. c #8F7764",
"I. c #AE9F94",
"U. c #9F8878",
"Y. c #897162",
"T. c #AF9989",
"R. c #A69181",
"E. c #A98B71",
"W. c #DED1C4",
"Q. c #715A49",
"!. c #604D3C",
"~. c #27201C",
"^. c #A48771",
"/. c #CDBEB3",
"(. c #AC9284",
"). c #A5876D",
"_. c #7D6755",
"`. c #65503F",
"'. c #79624E",
"]. c #AD8E73",
"[. c #A5978D",
"{. c #816959",
"}. c #866B55",
"|. c #C8B3A4",
" X c #CAB6A7",
".X c #D2B192",
"XX c #C1A992",
"oX c #89725E",
"OX c #765D4C",
"+X c #756257",
"@X c #BBAFA5",
"#X c #7A6E65",
"$X c #695244",
"%X c #59493E",
"&X c #9F8772",
"*X c #B39981",
"=X c #AA8E7B",
"-X c #997D66",
";X c #5C4736",
":X c #8B7363",
">X c #B2A398",
",X c #90755E",
"<X c #937D6C",
"1X c #BE9F83",
"2X c #BEA89A",
"3X c #D5BFB0",
"4X c #564941",
"5X c #514C46",
"6X c #B59B8D",
"7X c #B09782",
"8X c #A89B91",
"9X c #E4D8CD",
"0X c #86776B",
"qX c #AB9481",
"wX c #C4AB95",
"eX c #49433E",
"rX c #BA9F8C",
"tX c #B6A18D",
"yX c #5D5751",
"uX c #B19A84",
"iX c #B99E83",
"pX c #A1948A",
"aX c #C0B2A7",
"sX c #CAAF97",
"dX c #C6B8AC",
"fX c #B7A695",
"gX c #B6A79A",
"hX c #ECE1D6",
"jX c #96897F",
"kX c #BB9C80",
"lX c #ADA299",
"zX c #7D7269",
"xX c #F7EDE3",
"cX c #92877E",
"vX c #B8987F",
"bX c #9C9086",
"nX c #6D5645",
"mX c #57504A",
"MX c #F8F1E8",
"NX c #44413C",
"BX c #D9CCC0",
"VX c #B5A99F",
"CX c #E9DDD1",
"ZX c #E0D4C8",
"AX c #B09177",
"SX c #C1AD9A",
"DX c #7F766E",
"FX c #C3A587",
"GX c #B69378",
"HX c #ECE6DB",
"JX c #847C75",
"KX c #EAE3D9",
"LX c #FDF6EE",
"PX c #FFFFF7",
"IX c #968E85",
"UX c #D4C8BD",
/* pixels */
"[ i I.HX/.d Y.v.{.:Xs b y.s b 4.4.F T.i.i.i.G ' p.p C i.M.|. X0 t.t.0 |.+.aXO w w : : : t 0 7X| 6 | iX1X1XiX>.M ; R G 1.tXA p o ",
"U i , > 2X(.F g.lX8 :X4.` ` :X  /.0 F ; D.U.5.@Xk.+ SXm m |. X X0 0 0 |.w.<.4.M O : t : : s P.kXiXiXkXkX1XFXXX- Q p.Z.Z.Z.W.bX8.",
"f /   m 2X2X+.k ZXLXMX9X> 3 ~ t.UXW.@XR.).AXkXW.UX3 m |.|.|. X|.|.0 0 m m m F 5.O.o.L (.L U.{.vX1X1X1X1X1X1XFXsXFX<X4 E o.' lX8X",
"/ H I 8 2Xi.> L.' UXMX, , i.l.z (.R.k.$ Z AXGX].E.b ~ , 2X<.2X2X2X2X2X2Xl.= u 6.4.F F ! s A c.y.f.kXkXkXGXGXvXvX1XFXSXw ` OXo @X",
"m.H =.+X< |.|. Xt.v 2Xw.3Xm m m m t.M.GXGXFX.XsXsX|.h.1.m w.3X3X3X3X3X3Xt.+ xXHX3 : O.% Z.ZXhXM vXwX.X.X.X.X.X.X.X.X].b { d $.f ",
"D _ H / S.m.5  .5 -.8.J. .5 4X4X4XU / 5 2.;X&.} } JXzX-.N U 5 r N.N.r  .4XF.#X_ F.D D J.*./ #X-.c q 9.} !.!.!.!.} d.!.{.{ d d $.",
"r D f _ S.U 1 1 W W 1 1 1 1 W W 1 W 0.0.P P 1 1 W ,.^ 0.W P W W 1 1 1 W g z.1 g g g g z.g 1 1 g W P P P P W P P P g yXs.{ d $.*.",
"9.N.D F.# 5 ^ g 1 W P 1 g g g W W 1 ~.z.g P P W 1 :.g 1 g 1 W P P P P 1 z.z.~.~.~.~.~.~.~.~.~.z.g ~.z.1 W g 1 1 z.@.D n 7.$X&.cX",
"4X2.%X4XD q X. . .IXb.-.5 r 9./ DX=.#XzXzXzXN.N.m.m.+Xf / H H m.jXlX[.=.] . n o . . . o o . . d Q.IXbXH #X#XzXzXH @.r x.%.*.d X ",
"'.`.%Xr o -.x A.T. XM.6X1.h.o.m , v 0  Xw.w.0 W.> 6XrX1.K > i.i.t.PXMX@ XXwXsXsXsXsXsXsXsXwXK | kX3Xw.i.SX2X, 0 G X.N.q.#.s r._.",
"'.'.3.@XW.N.h n.L % L 1.L.3 3 L 5.= y , <.v <.X n.o.3 o.L t 3 1.(.t.k.K.@ | 6 ;.;.6 6 6 B.@ *X7Xj qX+.h.h.L.X <.= X.N.* $.r.r.oX",
"'.d '.8XaX2.q <Xo.L h.h.> > h.6XU.* y > +.+.<.I.p.w (.L L ~ L.> h.(.% - ..B.rX6 | rXrX6 6 B.B.B...; M.h.1.1.v t.x.X.N.p.d ,XoXoX",
"d d d _.p 7.q F t t L 6Xi.h.6XL U.e x.< +.k <.X R.~ : L L L.1.> 1.R.X L...uX*Xj 7 @ ;.;.6 ;.;.K R.%.1.1.6Xi.<.m x.@.5 p _.P.oXP.",
"d d d nX$.d.h s w % : t 3 6X3 t % A.2 G > <.G x.g.o.~ 1.h.i.i.i.L.U.HX0 ^.$ ^.^.K.7 @ @ *XrXXX6 >X8Xc.T.i.<.<.|.x.c 8.p {.:X:XP.",
"'.OXOXs.c.q q u.O % : t w o.: ! + KX< u.a.p G.HX* : 6X3 ~ > +.2XU.@XPXKX3 % w : : K.l $ j @ B.* k.CX@Xa q.y j.> a T yX4 Q.3.{.v.",
"Q.Q.$XH @Xh c u.5.p.% : : w E u k.m | *X@ ..B.3X' b ~ L (.~ > C a  X0 /.k.t.3 D.O % E b &X&X2 x.< + t.v #.C.#.n.# ,. .6.!.v._.'.",
"Q.`.} F.A.5 x s.o u.E 5.Q E <XXX| j *X;.K K iXvX@ Y.4.w o.T.Z.o G.fX> , k k v y R q.[.8X[.4 X l.T.R R , v u   D.F ,.-.s } Q.'.'.",
"!.!.pX=.o 5 -.A 3.s.+XS . A uX| @ @ | K XXK | *Xj 7 C 6.u.3.i dX* C X y y +.+ + j.+ + w.xXX z G C T.j., , y q.w a.& -.u.` nX$XnX",
";X$.lX=.6.5 -.4 l.= a VXw.~ | | @ | XXXXXXK 6 @ f.E.hXKXC <Xy BX= < T.L.L.h.h.X < C R x.v u C X l.l.> <.v ; ( % <X& -.P.( ! Q.$X",
"$.$.s.F.e  .U p.T.X z t.M.$ B.6 6 ;.K 6 6 6 iXvXAX^.9Xk.~ 1.O.M A ; = R R R = ; g.G X < ; V ; < X y y +.+.G.6.n.( 0.q v.Q.<X<Xn.",
"$.$.s.d.{ 8.N p.= 2 2 R.f.iXB.6 | B.| B.@ @ f.AX>.% > =X3 3 % 5.; 6.p ' u * g.q.l., X C G # 6.* z j.X G   aXa ] [ z.& ; # Q._.'.",
"nX$.) %.i -.J . A G.BX0 l 7X7X7Xj 7 j @ j - ^.y.:Xt L L (.: F * LXW.  A   C l.l.X j.z V.a b.# o a #.p e * v y #.S.J mX>X%.] s.A.",
"7.} &.%.; F.5 * X t.hX X,X^.l K.K.K.K.l >.b :XX gXE o.t : F   9X9XW.w.w F A a.  u 2 e S.C.G.G.H.2 [.b.< j.j.; X G.X.r ' # a.# jX",
"m.=.H I 2 N.4X= k G = w.U.r.y.-XB B -Xy.P.<X+ hXw.3.E ! 4.<Xt.|.K L.tXK XXl.' <X. #X4 8Xg.' u #.pXhXX fXz ' u X G.@.mX' o H.0Xn ",
"# %.n H.G.D 5 x.<.k C t.xX> 4.` P.Y.s R.R + <.+ k + e V ' tXwX2X> T.3 L h.K K ;.qXgXMXaX8 u   8 b.xX[.A.a 0 CXV.a @. .Z.n H.# 0X",
"N./ # . 4 J.5 x.+.G u y /.> 6Xo.m CXhX/.y +.k v v m <.dX> 3 K T.o.: Y 7X~ t Y K.qX7X<.V.' 4 4 # 8XCXy ..@ SXwX;.e 0.N p # A.# n ",
"D _ H.. 2 J.4X* X 2 C.C ~ h.~ 3 R.CXk.= z j.X k v k k y 2 A 3 o.t l - 7 7 =XY - - 7 a.8 * 2   S = *Xj ;.K ;.;.wXqXh 9.` f C.H.I ",
"DX .=.H a. .U a e jX0 : o.X o.O : y < x.X h.L.> k , k , y p ` t ~ ..=X7 7 $ - $ $ U.%.q.  4 e ( ..j @ @ 6 K K wXqXX.!.D.=.] I f ",
"I.J.5 &.f q ^ I >XMX0 M t O.Q : D.p.< g.< > L.h.fXv , k j.z ) 4.w O.$ 7 7 7X7 7 n.H.jX= 4 C.f ! Y 7 7 j @ 6 6 XXO.h d.uXVXn N.[ ",
"a n !.9._ q ^ 2 W.MXy O.L t D.3 R a R.q.= L.h.i.k v y < x.; I.a v.Q w O.D.O.5.( H./.BXa.V n w.Z.>.7 7 f.@ rXB.6 O ^ d.tX@Xc.` e ",
"o # %.=.+ D 4XR.l.v   b w (.L.D.k /.u.p.u g.R < G C i o 6.p M.T.( ) _.` e # .   + t.t.; c.0 LXI.P...7 7X@ @ uX6 % h 5 O.n P.A A ",
". H.# . 6.5 U n.3 o.' 6.` e s p.9XPXdX( n 6.6.o . # V e * C ! L h.= c.W.CXV.+ m k y y v , j.SXI.3.&X$ 7XuX@ 7XB.U.h  .b ` 6.3.( ",
") S n . e h q F t Q k W.* n.gXk.k.w.w.tX! Y.C.  4 V.x.x.v I.] u.D.j.X aXy G v k <.v y X j.+ z < S.{.B - 7 qX&X>.,Xc J.F 3.e ` . ",
"s.[ o o n.-.N S a.p.+ v k v k.XXB.6 6 ;.XX@ k./.= ; g.; ; G < V +Xn n V X j.X + +.k k +., , , X = pXA.:Xb E D.l.G yX#XY.S 3.` . ",
"&.&.J.J.d / F.4 z y y y , G &Xj | 6 ;.rXB.@ 7 p.; = q.q.q.; x.x.S.[.pX8 y + j.z z + , +.+.+.y < x./.3 Z ^.E.@  X0 mXDXe `.) $.{ ",
"8.9.&.5 n &.-.; k + j.j.j.C F f.*Xf.f.7 ..- $ S 4 V.V.< G < G ; 4 9X+ ( z z z C = R G y X < V.* H.>.].].].].E.].y.,.} >.$X{ $X} ",
"F.[ 0XlXlXU U 4 X j.+ X l.D.:X- Y l l l l >.&X* I S.4 ; < x.V.q.i 8X< c.* * g.* * R < C C 4 a.# -X$ $ =X$ - - f.B & d.>.}.Z.VXjX",
"H f f I u U U 4 l.z X < Z.g.4.s w =XY ^.B P.5.> D.( _ . # S.# o . 0 gX] c.  u * u g.= 2 6.# 4   y.].j ..$ Y l =X<X,.d.-Xe.<XI.0X",
"H f o _ . 8.N a.3 R.  0Xe |.< d Y.:Xr.r.:Xs : : w t p ) a H.3.c.w ~ 3 ! ] =.o e p.u 2 8 2 #.* i 2 r.P.-XZ Z ).].-Xc d.-XOX) H ] ",
"F.{ f m.o q ^ # a.u.P.B ..f...Y ! ; I.0 C O % M E M % % R D.w (.% O % o.% p.>X#.V n S.>XbXS =.%.j.p.e Y.v.}.e.r.d 9 q '.`.*.[ I ",
"J.D m.F.0X .m.>X$ E.E.].E.- f.f...B.ZXZX! O O % Q u.Y.( 4 3.<Xp.5.M O w Z.5.w.xXG.V 2 U.c.b.b.Z.C z h.< ; ; a.# b.0.c *.o f &.f ",
" .*.[ F.n 4XJ.B ).).>.).).^.l l l Z E.p.b O w E ` V 4 aXxXI.S u.Q E M % ' n.' #.f b.p 5.R.dX>Xu C ; ; Z.q.R C C bXJ 5 * %.. d.d.",
"q 9.*.D N.N.-.oX>.B >.>.>.Z Z ^.l Z E.,X+X( 3.3.qX;.@ | wX3X+ o Y.E M p.n.n.e D I 8   * (.g.#.2 C < C C ; R < i S.@.5X2 o V [ 5 ",
"H 4X8.8.C.JXh v.B B >.>.B >.>.l ).).E.E.s V s j *X..$ - $ $ *X- d 3.E <Xc.] [./.f %.g.V.q.a.  u n A.8 '   * 2 G.S.@.5 #.o ( V ( ",
"#./ s.[ ; JX .d r.y.B B B B >.).Z ).Z }.fXdXl 7 O.- - $ 7 7X7 j Y *.[ ) s.b.k.W.#.D C.G.; q.; >XdX8 ) +Xf ) 8 9Xi :. .#.. H.. S ",
"} $X+X{ v.%XU ( $.nXe.y.-XB >.>.>.y.d %.W.G y.....=XY - $ - $ 7 7Xx.pXe a 4 8 8 G.#.# 0X#.4 2 U.tX@ 7 $ Y D.uX;.F g -.n.. 0Xn . ",
"d.} *.{ :X5 q $.@X>Xv.'.e.e.}.r.}.d A.V.G   {.l $ - l O K.O M O.$ t.I.a 2 a.8     u G.a.>XbXoX^.=X..7 7 *X7X$ AXE & ,.=.=.A.I f ",
"&.h 2.2.*.q 9 S 1.j.< s u.` _.) A ;   i * g.) v.! Q U.O O % O O O.F H.V A.a a a.8 8   8 BXaXv.l - K.^.Y - =X- 7 ! h 8.s.D D J.C.",
"m.&.5 8.7.x N D.o.w O.% X 9Xv 5.= R.g.u g.u lX2 u.% M M O O O O % e =.V V i a.a 8   8 a.%.#.l K.=XY $ - - ..$ $ <Xc %Xs 0X] . . ",
"{ f 8X# ` r 9.' ~ 3 t O E x.8 a.p 2 ; q.2 S./.<.. u.O M Q E ! 5.M 5.f H H.# # A.A.# =./ J.3.$ $ t Y Y Y Y - K.K.F c 9.s b.( . ) ",
"{ *.#Xs.Y.5 U ' ~ ~ 3 t O 6.o i i 8 8 V H i * g.u . $.` s n.! <X{.gXVXr 5 r D D { { F.I cXo Q : (.t : % w w % w b c 7.a.o . ) ) ",
"[ s.N.%X` d.q ! L w % O F = pX[ =.I [ H i g.  2 ' g.6.[ ) { s.S ( , 0 [.jXA.=.u.B l $ $ 2X  ` Q : : w w : : % % A & 8.V.I n +X+X",
"+X+XI  .$X9.q u.% Q Q b {.R w.p s.S VX[.i 8 i p a     * F A c.5.5.! <XU.W.gXB ..$ - 7 ..).&X8 S s M O O % O E B {.T U C.=.=.+X) ",
"s.{ #XJX*.& x *.S S $.$.{.Z ).E.E.E.<.%.e # V i C.C.e s.d ] v.F e p p A 8 E Q M Y K.l Y ..>.+.4 v.v.:X4.Y.oXoX5.a & 5 V f H S S ",
"[ &.zX[.4 q x { s.] [.G ,Xr.,XZ Z -Xy.*.{ H.#.C.i %.n %._ . b.3.c.p c.3.Y.b F Q O O M E M ! A tX&X2 i 6.V   + /.[.9 U c.) o S ) ",
"U 8.+XQ.}.;X7.y.Z Z rX+ OX}.r.B B y.y.a S.m./ m.f ] 5.qXQ qXt.e f H f e u.! b Q M Q M Q ! b $.U.s a 4 ' u     8 I g h S *._ s.*.",
"r _ !.`.e.d.h }.,X,X}.n.A $X$XnXQ.Q.OX* q.e # jXA oXr.,X,Xr.r.y.r.3.dXk.[ Y.P.4.4.P.s b s {.4 I.H.a.i e i C.%.e [ 0.^ r 9.9.5 &.",
"N.&.;X$X'.d.`.e.e.e.Q.q.W.a %X&.%X$X( p i 6.G.aX_.e.e.}.e.e.e.e.e.}.BX9X&.!.$.OXOXOXOX_.v.`.@Xk.[ ( 3.` ` . S f ] pXDXbXD H / r ",
"D F.2.`.OX7.} ;X} ;X9.cXH D N.cXIX/ _ D D J./ _ ;X!.} ;X} } ;X;X} 7.i @X .& 2.7.7.7.7.d.7.q cXpX-. .r N.r r r %Xr 8Xb.u S H J.&.",
"H / 9.7.`.7.2.2.q h  .4XU 9.U U yX4X4X5 U 8.h q 2.2.q q 2.2.2.2.h 8.#XDXm.2.^ ,.0.:.:.x 7.`.$X!.q h N 8.-.-.N 8.r r N.( S _ _ H.",
"/ / I & g T 9 :.& eX^ J & ,.,.0.:.^ ^ J 0.:.0.T ~.9 9 9 9 T 9 9 0.N 8.N 8.-.X.J X.N J c q h h & x 0.9 9 :.T 9 & X.^ @.c -.{ _ . ",
"m.[ N.eXmXeXNXeX5X5X@.~.~.0.NXyXNXz.z.g :.eXN ,.9 1 W W 1 ~.0.c h & & & c ^ c h :.0.& ,.,.x T z.0.:.9 9 J eXmXN T T T z.:.F.#Xn ",
"/ N.:.,.^ ,.x x ,.,.& ,.& J ^ @.X.N NXJ @.@.^ @.@.^ ,.X.5X5XJ 9 :.x & c ^ ^ c & 9 9 & c :.9 :.~.~.T T 9 9 @.X.J J J ,.X.5X@.J.o ",
"-.X.X.& 9 ,.,.x & & & c c c c & x N 5XN N N N N X.X.@.eXF.yXeXJ x 9 :.& h h c c 5X^ & c ,.5XyX@.z.9 T ~.x 9 & J ^ X.X.N yXX.J U "
};
