/* XPM */
static char *_e3f4afd92004a86a8c42550906a1bb2mm09L7IcsNNIdOrq[] = {
/* columns rows colors chars-per-pixel */
"64 64 206 2 ",
"   c #020100",
".  c #0B0404",
"X  c #460101",
"o  c #550100",
"O  c #5B0201",
"+  c #024400",
"@  c #025500",
"#  c #025B00",
"$  c #4B4F00",
"%  c #575600",
"&  c #020155",
"*  c #060458",
"=  c #2B0147",
"-  c #470155",
";  c #580155",
":  c #024455",
">  c #025555",
",  c #025B55",
"<  c #2A5447",
"1  c #4C4F55",
"2  c #585655",
"3  c #9B0101",
"4  c #AB0101",
"5  c #B10101",
"6  c #EA0108",
"7  c #F10101",
"8  c #FF0101",
"9  c #9B5400",
"0  c #AB5600",
"q  c #B05100",
"w  c #EE4F05",
"e  c #FA5600",
"r  c #9D0155",
"t  c #AB0155",
"y  c #B20155",
"u  c #E7015D",
"i  c #F30156",
"p  c #FF0155",
"a  c #E80460",
"s  c #9D5455",
"d  c #AB5655",
"f  c #B15155",
"g  c #EC4F5B",
"h  c #FB5655",
"j  c #029B00",
"k  c #02AA00",
"l  c #539B00",
"z  c #46AA00",
"x  c #57AA00",
"c  c #02E400",
"v  c #02FF00",
"b  c #0BFF04",
"n  c #4BF500",
"m  c #58FF01",
"M  c #0C9B52",
"N  c #02AA55",
"B  c #2AAA47",
"V  c #549B55",
"C  c #47AA55",
"Z  c #58AA55",
"A  c #02E455",
"S  c #02FF55",
"D  c #06FF58",
"F  c #2BFC47",
"G  c #4CF555",
"H  c #58FF55",
"J  c #A89B00",
"K  c #9BAA00",
"L  c #ABAA00",
"P  c #B1AA00",
"I  c #F69B02",
"U  c #EAAA07",
"Y  c #F1AA00",
"T  c #FFAA00",
"R  c #9BE400",
"E  c #9BFF01",
"W  c #ADE400",
"Q  c #ABFF01",
"!  c #B1FF01",
"~  c #EFF505",
"^  c #F1FF01",
"/  c #FFFF01",
"(  c #A99B55",
")  c #9DAA55",
"_  c #ABAA55",
"`  c #B2AA55",
"'  c #F69B57",
"]  c #E7AA5D",
"[  c #FBAA55",
"{  c #9DFC55",
"}  c #ABFF55",
"|  c #B1F755",
" . c #EDF45B",
".. c #FBFF55",
"X. c #E8FF60",
"o. c #27019D",
"O. c #0001AB",
"+. c #0901AA",
"@. c #4901AA",
"#. c #5801AA",
"$. c #6004AB",
"%. c #26549D",
"&. c #0344AA",
"*. c #0356AA",
"=. c #4D4FAA",
"-. c #5856AA",
";. c #0001FF",
":. c #0A01FF",
">. c #2301F4",
",. c #4A01FF",
"<. c #5501FF",
"1. c #5E01FF",
"2. c #6104FF",
"3. c #0344FF",
"4. c #0356FF",
"5. c #2254F4",
"6. c #4E4FFF",
"7. c #5856FF",
"8. c #9E01AA",
"9. c #AA01AA",
"0. c #B301AA",
"q. c #F301AA",
"w. c #FF01AA",
"e. c #E401B3",
"r. c #9E54AA",
"t. c #AA56AA",
"y. c #B151AA",
"u. c #FB56AA",
"i. c #EA4FB0",
"p. c #9F01FF",
"a. c #A104FF",
"s. c #AA01FF",
"d. c #B401FF",
"f. c #F401FF",
"g. c #FF01FF",
"h. c #9F54FF",
"j. c #AA56FF",
"k. c #B251FF",
"l. c #FC44FF",
"z. c #FF55FF",
"x. c #F758FF",
"c. c #26AA9D",
"v. c #0C9BA7",
"b. c #03AAAA",
"n. c #549BAA",
"m. c #49AAAA",
"M. c #58AAAA",
"N. c #27FC9D",
"B. c #03E4AA",
"V. c #03FFAA",
"C. c #4DF5AA",
"Z. c #58FFAA",
"A. c #60FFAB",
"S. c #0B9BFC",
"D. c #00AAFF",
"F. c #09AAFF",
"G. c #22AAF4",
"H. c #559BFF",
"J. c #4AAAFF",
"K. c #58AAFF",
"L. c #03E4FF",
"P. c #00FFFF",
"I. c #0AFFFF",
"U. c #23FCF4",
"Y. c #55E4FF",
"T. c #4AFFFF",
"R. c #58FFFF",
"E. c #61FFFF",
"W. c #A99BAA",
"Q. c #9EAAAA",
"!. c #AAAAAA",
"~. c #B4AEAE",
"^. c #FBAAAA",
"/. c #E1A8B0",
"(. c #EBAFB4",
"). c #9EFBAA",
"_. c #AAFFAA",
"`. c #B2F9AD",
"'. c #CCFFB4",
"]. c #F3FFAA",
"[. c #FFFFAA",
"{. c #E5FFB3",
"}. c #F9F2B0",
"|. c #9FAAFF",
" X c #AEA6EA",
".X c #AAAAFF",
"XX c #B6AFF8",
"oX c #CAB4CC",
"OX c #F1B4CD",
"+X c #FC9BFF",
"@X c #CDB4F3",
"#X c #F4AAFF",
"$X c #FFAAFF",
"%X c #F2B4F3",
"&X c #B4FFCD",
"*X c #9FFBFF",
"=X c #A1FFFF",
"-X c #AAFFFF",
";X c #B3F3F0",
":X c #B5FFFF",
">X c #CAFFCC",
",X c #F1FFCD",
"<X c #CDFFF3",
"1X c #F1F8F3",
"2X c #F4FFFF",
"3X c #FFFFFF",
/* pixels */
"3X3X3X3X3X3X3X3X3X3X3X3X3X3X3X3X3X3X3X3X3X3X3X3X3X3X3X3X3X3X3X3X3X3X3X3X3X3X3X3X3X3X3X3X3X3X3X3X3X3X3X3X3X3X3X3X3X3X3X3X3X3X3X3X",
"3X3X3X3X3X3X3X3X3X3X3X3X3X3X3X3X3X3X3X3X3X3X3X3X3X3X3X3X3X3X3X3X3X3X3X3X3X3X3X3X3X3X3X3X3X3X3X3X3X3X3X3X3X3X3X3X3X3X3X3X3X3X3X3X",
"3X3X3X3X3X3X3X3X3X3X3X3X3X3X3X3X3X3X3X3X3X3X3X3X3X3X3X3X3X3X3X3X3X3X3X3X3X3X3X3X3X3X3X3X3X3X3X3X3X3X3X3X3X3X3X3X3X3X3X3X3X3X3X3X",
"3X3X3X3X3X3X3X3X3X3X3X3X3X3X3X3X3X3X3X3X3X3X3X3X3X3X3X3X3X3X3X3X3X3X3X3X3X3X3X3X3X3X3X3X3X3X3X3X3X3X3X3X3X3X3X3X3X3X3X3X3X3X3X3X",
"3X3X3X3X3X3X3X3X3X3X3X3X3X3X3X3X3X3X3X3X3X3X3X3X3X3X3X3X3X3X3X3X3X3X3X3X3X3X3X3X3X3X3X3X3X3X3X3X3X3X3X3X3X3X3X3X3X3X3X3X3X3X3X3X",
"3X3X3X3X3X3X3X3X3X3X3X3X3X3X3X3X3X3X3X3X3X3X3X3X3X3X3X3X3X3X3X3X3X3X3X3X3X3X3X3X3X3X3X3X3X3X3X3X3X3X3X3X3X3X3X3X3X3X3X3X3X3X3X3X",
"3X3X3X3X3X3X3X3X3X3X3X3X3X3X3X3X3X3X3X3X3X3X3X3X3X3X3X3X3X3X3X3X3X3X3X3X3X3X3X3X3X3X3X3X3X3X3X3X3X3X3X3X3X3X3X3X3X3X3X3X3X3X3X3X",
"3X3X3X3X3X3X3X3X3X3X3X3X3X3X3X3X3X3X3X3X3X3X3X3X3X3X3X3X3X3X3X3X3X3X3X3X3X3X3X3X3X3X3X3X3X3X3X3X3X3X3X3X3X3X3X3X3X3X3X3X3X3X3X3X",
"3X3X3X3X3X3X3X3X3X3X3X3X3X3X3X3X3X3X3X3X3X3X3X3X3X3X3X3X3X3X3X3X3X3X3X3X3X3X3X3X3X3X3X3X3X3X3X3X3X3X3X3X3X3X3X3X3X3X3X3X3X3X3X3X",
"3X3X3X3X3X3X3X3X3X3X3X3X3X3X3X3X3X3X3X3X3X3X3X3X3X3X3X3X3X3X3X3X3X3X3X3X3X3X3X3X3X3X3X3X3X3X3X3X3X3X3X3X3X3X3X3X3X3X3X3X3X3X3X3X",
"3X3X3X3X3X3X3X3X3X3X3X3X3X3X3X3X3X3X3X3X3X3X3X3X3X3X3X3X3X3X3X3X3X3X3X3X3X3X3X3X3X3X3X3X3X3X3X3X3X3X3X3X3X3X3X3X3X3X3X3X3X3X3X3X",
"3X3X3X3X3X3X3X3X3X3X3X3X3X3X3X3X3X3X3X3X3X3X3X3X3X3X3X3X3X3X3X3X3X3X3X3X3X3X3X3X3X3X3X3X3X3X3X3X3X3X3X3X3X3X3X3X3X3X3X3X3X3X3X3X",
"3X3X3X3X3X3X3X3X3X3X3X3X3X3X3X3X3X3X3X3X3X3X3X3X3X3X3X3X3X3X3X3X3X3X3X3X3X3X3X3X3X3X3X3X3X3X3X3X3X3X3X3X3X3X3X3X3X3X3X3X3X3X3X3X",
"3X3X3X3X3X3X3X3X3X3X3X3X3X3X3X3X3X3X3X3X3X3X3X3X3X3X3X3X3X3X3X3X3X3X3X3X3X3X3X3X3X3X3X3X3X3X3X3X3X3X3X3X3X3X3X3X3X3X3X3X3X3X3X3X",
"3X3X3X3X3X3X3X3X3X3X3X3X3X3X3X3X3X3X3X3X3X3X3X3X3X3X3X3X3X3X3X3X3X3X3X3X3X3X3X3X3X3X3X3X3X3X3X3X3X3X3X3X3X3X3X3X3X3X3X3X3X3X3X3X",
"~.~.~.~.~.oXoXoX(.(.(.(.^.^.^.^.oXoXoXoXoXoXoXoXOXOXOXOXOXOXOXOX X X X X@X@X@X@X%X%X%X%X%X%X%X%XXXXXXXXX@X@X@X@X%X%X%X#X$X$X$X$X",
"      . X O O O 3 4 4 5 7 8 8 6 = * * * - ; ; ; r t t y i p p a o.O.O.+.@.#.#.$.9.9.9.0.q.w.w.e.>.;.;.:.,.<.<.2.a.s.s.d.f.g.g.g.",
"        X o o O 3 4 4 5 7 8 8 6 = & & & - ; ; ; r t t y i p p u o.O.O.+.@.#.#.#.8.9.9.0.q.w.w.e.>.;.;.:.,.<.<.1.p.s.s.d.f.g.g.g.",
"        X o o O 3 4 4 5 7 8 8 6 = & & & - ; ; ; r t t y i p p u o.O.O.+.@.#.#.#.8.9.9.0.q.w.w.e.>.;.;.:.,.<.<.1.p.s.s.d.f.g.g.g.",
"        X o o O 3 4 4 5 7 8 8 6 = & & & - ; ; ; r t t y i p p u o.O.O.+.@.#.#.#.8.9.9.0.q.w.w.e.>.;.;.:.,.<.<.1.p.s.s.d.f.g.g.g.",
"        X o o O 3 4 4 5 7 8 8 6 = & & & - ; ; ; r t t y i p p u o.O.O.+.@.#.#.#.8.9.9.0.q.w.w.e.>.;.;.:.,.<.<.1.p.s.s.d.f.g.g.g.",
"        X o o O 3 4 4 5 7 8 8 6 = & & & - ; ; ; r t t y i p p u o.O.O.+.@.#.#.#.8.9.9.0.q.w.w.e.>.;.;.:.,.<.<.1.p.s.s.d.f.g.g.g.",
"        X o o O 3 4 4 5 7 8 8 6 = & & & - ; ; ; r t t y i p p u o.O.O.+.@.#.#.#.8.9.9.0.q.w.w.e.>.;.;.:.,.<.<.1.p.s.s.d.f.g.g.g.",
"        X o o O 3 4 4 5 7 8 8 6 = & & * - ; ; ; r t t y i p p a o.O.O.+.@.#.#.#.8.9.9.0.q.w.w.e.>.;.;.:.,.<.<.1.p.s.s.d.f.g.g.g.",
"+ + + + $ $ $ % 9 q q q w e e w < : : : 1 1 1 2 s f f f g h h g %.&.&.&.=.=.=.-.r.y.y.y.i.u.u.i.5.3.3.3.6.6.6.7.h.k.k.k.l.l.l.l.",
"@ @ @ @ $ % % % 9 0 0 q w e e w < > > > 1 2 2 2 s d d f h h h g %.*.*.*.=.-.-.-.r.t.t.y.u.u.u.i.5.4.4.4.6.7.7.7.h.j.j.k.x.z.z.z.",
"@ @ @ @ $ % % % 9 0 0 q w e e w < > > > 1 2 2 2 s d d f g h h g %.*.*.*.=.-.-.-.r.t.t.y.u.u.u.i.5.4.4.4.6.7.7.7.h.j.j.k.x.z.z.z.",
"@ @ @ @ $ % % % 9 0 0 q w e e w < > > > 1 2 2 2 s d d f g h h g %.*.*.*.=.-.-.-.r.t.t.y.u.u.u.i.5.4.4.4.6.7.7.7.h.j.j.k.x.z.z.z.",
"@ @ @ @ $ % % % 9 0 0 q w e e w < > > > 1 2 2 2 s d d f g h h g %.*.*.*.=.-.-.-.r.t.t.y.u.u.u.i.5.4.4.4.6.7.7.7.h.j.j.k.x.z.z.z.",
"@ @ @ @ $ % % % 9 0 0 q w e e w < > > > 1 2 2 2 s d d f g h h g %.*.*.*.=.-.-.-.r.t.t.y.u.u.u.i.5.4.4.4.6.7.7.7.h.j.j.k.x.z.z.z.",
"@ @ @ @ $ % % % 9 0 0 q w e e w < > > > 1 2 2 2 s d d f h h h g %.*.*.*.=.-.-.-.r.t.t.y.u.u.u.i.5.4.4.4.6.7.7.7.h.j.j.k.x.z.z.z.",
"# # # # $ % % % 9 0 0 0 e e e w < , , , 1 2 2 2 s d d d h h h g %.*.*.*.=.-.-.-.r.t.t.y.u.u.u.i.5.4.4.4.6.7.7.7.h.j.j.k.x.z.z.z.",
"j j j j l l l l J J J J I I I I B M M M V V V V ( ( ( ( ' ' ' ] c.v.v.v.n.n.n.n.W.W.W.W.^.^.^./.G.S.S.S.H.H.H.H.|..X.X.X+X+X+X+X",
"k k k k z x x x K L L P Y T T U B N N N C Z Z Z ) _ _ ` [ [ [ ] c.b.b.b.m.M.M.M.Q.!.!.~.^.^.^./.G.D.D.F.J.K.K.K.|..X.XXX#X$X$X$X",
"k k k k z x x x K L L P Y T T U B N N N C Z Z Z ) _ _ ` [ [ [ ] c.b.b.b.m.M.M.M.Q.!.!.~.^.^.^./.G.D.D.F.J.K.K.K.|..X.XXX#X$X$X$X",
"k k k k z x x x K L L P Y T T U B N N N C Z Z Z ) _ _ ` [ [ [ ] c.b.b.b.m.M.M.M.Q.!.!.~.^.^.^./.G.D.D.F.J.K.K.K..X.X.XXX#X$X$X$X",
"k k k k z x x x K L L P Y T T U B N N N C Z Z Z ) _ _ ` [ [ [ ] c.b.b.b.m.M.M.M.Q.!.!.~.^.^.^./.G.D.D.F.J.K.K.K.|..X.X.X#X$X$X$X",
"k k k k z x x x K L L P Y T T U B N N N C Z Z Z ) _ _ ` [ [ [ ] c.b.b.b.m.M.M.M.Q.!.!.~.^.^.^./.G.D.D.F.J.K.K.K.|..X.XXX#X$X$X$X",
"k k k k z x x x K L L P Y T T U B N N N C Z Z Z ) _ _ ` [ [ [ ] c.b.b.b.m.M.M.M.Q.!.!.~.^.^.^./.G.D.D.F.J.K.K.K.|..X.XXX#X$X$X$X",
"k k k k z x x x K L L P Y T T U B N N N C Z Z Z ) _ _ ` [ [ [ ] c.b.b.b.m.M.M.M.Q.!.!.~.^.^.^./.G.D.D.F.J.K.K.K.|..X.XXX#X$X$X$X",
"c c c c n n n n R W W W ~ ~ ~ ~ F A A A G G G G { | | |  . . . .N.B.B.B.C.C.C.C.).`.`.`.}.}.}.}.U.L.L.L.Y.Y.Y.Y.*X;X;X;X1X3X3X3X",
"v v v v n m m m E Q Q ! ^ / / ^ F S S D G H H H { } } | ......X.N.V.V.V.C.Z.Z.Z.)._._.`.].[.[.{.U.P.P.I.T.R.R.R.=X-X-X:X2X3X3X3X",
"v v v v n m m m E Q Q ! ^ / / ^ F S S D G H H H { } } | ......X.N.V.V.V.C.Z.Z.Z.)._._.`.].[.[.{.U.P.P.I.T.R.R.R.=X-X-X:X2X3X3X3X",
"v v v v n m m m E Q Q ! ^ / / ^ F S S D G H H H { } } | ......X.N.V.V.V.C.Z.Z.Z.)._._.`.].[.[.{.U.P.P.I.T.R.R.R.=X-X-X:X2X3X3X3X",
"v v v v n m m m E Q Q ! ^ / / ~ F S S D G H H H { } } | ......X.N.V.V.V.C.Z.Z.Z.)._._.`.].[.[.{.U.P.P.I.T.R.R.R.=X-X-X:X2X3X3X3X",
"v v v v n m m m E Q Q ! ^ / / ~ F S S D G H H H { } } | ......X.N.V.V.V.C.Z.Z.Z.)._._.`.].[.[.{.U.P.P.I.T.R.R.R.=X-X-X:X2X3X3X3X",
"v v v v n m m m E Q Q ! ^ / / ~ F S S D G H H H { } } | ......X.N.V.V.V.C.Z.Z.Z.)._._.`.].[.[.{.U.P.P.I.T.R.R.R.=X-X-X:X2X3X3X3X",
"v v v b n m m m E Q Q ! ^ / / ~ F S D D G H H H { } } | ......X.N.V.V.V.C.Z.Z.A._._._.`.].[.[.{.U.P.P.I.T.R.R.E.=X-X-X:X2X3X3X3X",
"`.`.`.`.'.'.'.'.{.{.{.{.[.[.[.[.>X&X&X&X>X>X>X>X,X,X,X,X,X,X,X,X;X;X;X;X<X<X<X<X1X1X1X1X1X1X1X1X:X:X:X:X<X<X<X<X2X2X2X2X3X3X3X3X",
"3X3X3X3X3X3X3X3X3X3X3X3X3X3X3X3X3X3X3X3X3X3X3X3X3X3X3X3X3X3X3X3X3X3X3X3X3X3X3X3X3X3X3X3X3X3X3X3X3X3X3X3X3X3X3X3X3X3X3X3X3X3X3X3X",
"3X3X3X3X3X3X3X3X3X3X3X3X3X3X3X3X3X3X3X3X3X3X3X3X3X3X3X3X3X3X3X3X3X3X3X3X3X3X3X3X3X3X3X3X3X3X3X3X3X3X3X3X3X3X3X3X3X3X3X3X3X3X3X3X",
"3X3X3X3X3X3X3X3X3X3X3X3X3X3X3X3X3X3X3X3X3X3X3X3X3X3X3X3X3X3X3X3X3X3X3X3X3X3X3X3X3X3X3X3X3X3X3X3X3X3X3X3X3X3X3X3X3X3X3X3X3X3X3X3X",
"3X3X3X3X3X3X3X3X3X3X3X3X3X3X3X3X3X3X3X3X3X3X3X3X3X3X3X3X3X3X3X3X3X3X3X3X3X3X3X3X3X3X3X3X3X3X3X3X3X3X3X3X3X3X3X3X3X3X3X3X3X3X3X3X",
"3X3X3X3X3X3X3X3X3X3X3X3X3X3X3X3X3X3X3X3X3X3X3X3X3X3X3X3X3X3X3X3X3X3X3X3X3X3X3X3X3X3X3X3X3X3X3X3X3X3X3X3X3X3X3X3X3X3X3X3X3X3X3X3X",
"3X3X3X3X3X3X3X3X3X3X3X3X3X3X3X3X3X3X3X3X3X3X3X3X3X3X3X3X3X3X3X3X3X3X3X3X3X3X3X3X3X3X3X3X3X3X3X3X3X3X3X3X3X3X3X3X3X3X3X3X3X3X3X3X",
"3X3X3X3X3X3X3X3X3X3X3X3X3X3X3X3X3X3X3X3X3X3X3X3X3X3X3X3X3X3X3X3X3X3X3X3X3X3X3X3X3X3X3X3X3X3X3X3X3X3X3X3X3X3X3X3X3X3X3X3X3X3X3X3X",
"3X3X3X3X3X3X3X3X3X3X3X3X3X3X3X3X3X3X3X3X3X3X3X3X3X3X3X3X3X3X3X3X3X3X3X3X3X3X3X3X3X3X3X3X3X3X3X3X3X3X3X3X3X3X3X3X3X3X3X3X3X3X3X3X",
"3X3X3X3X3X3X3X3X3X3X3X3X3X3X3X3X3X3X3X3X3X3X3X3X3X3X3X3X3X3X3X3X3X3X3X3X3X3X3X3X3X3X3X3X3X3X3X3X3X3X3X3X3X3X3X3X3X3X3X3X3X3X3X3X",
"3X3X3X3X3X3X3X3X3X3X3X3X3X3X3X3X3X3X3X3X3X3X3X3X3X3X3X3X3X3X3X3X3X3X3X3X3X3X3X3X3X3X3X3X3X3X3X3X3X3X3X3X3X3X3X3X3X3X3X3X3X3X3X3X",
"3X3X3X3X3X3X3X3X3X3X3X3X3X3X3X3X3X3X3X3X3X3X3X3X3X3X3X3X3X3X3X3X3X3X3X3X3X3X3X3X3X3X3X3X3X3X3X3X3X3X3X3X3X3X3X3X3X3X3X3X3X3X3X3X",
"3X3X3X3X3X3X3X3X3X3X3X3X3X3X3X3X3X3X3X3X3X3X3X3X3X3X3X3X3X3X3X3X3X3X3X3X3X3X3X3X3X3X3X3X3X3X3X3X3X3X3X3X3X3X3X3X3X3X3X3X3X3X3X3X",
"3X3X3X3X3X3X3X3X3X3X3X3X3X3X3X3X3X3X3X3X3X3X3X3X3X3X3X3X3X3X3X3X3X3X3X3X3X3X3X3X3X3X3X3X3X3X3X3X3X3X3X3X3X3X3X3X3X3X3X3X3X3X3X3X",
"3X3X3X3X3X3X3X3X3X3X3X3X3X3X3X3X3X3X3X3X3X3X3X3X3X3X3X3X3X3X3X3X3X3X3X3X3X3X3X3X3X3X3X3X3X3X3X3X3X3X3X3X3X3X3X3X3X3X3X3X3X3X3X3X",
"3X3X3X3X3X3X3X3X3X3X3X3X3X3X3X3X3X3X3X3X3X3X3X3X3X3X3X3X3X3X3X3X3X3X3X3X3X3X3X3X3X3X3X3X3X3X3X3X3X3X3X3X3X3X3X3X3X3X3X3X3X3X3X3X"
};
