/* XPM */
static char *_cf527281823493bf36be249154376aeYqNKiPoHDRBKgKQn[] = {
/* columns rows colors chars-per-pixel */
"64 64 205 2 ",
"   c #2A2517",
".  c #272319",
"X  c #2B261A",
"o  c #2E291C",
"O  c #322D1D",
"+  c #36311E",
"@  c #3A341E",
"#  c #332E20",
"$  c #22382F",
"%  c #363121",
"&  c #3A3523",
"*  c #3D3926",
"=  c #343D2A",
"-  c #393E29",
";  c #303F32",
":  c #423B24",
">  c #413C28",
",  c #1C4E3C",
"<  c #35422C",
"1  c #3B432C",
"2  c #364D2F",
"3  c #3C4B2B",
"4  c #3D4627",
"5  c #2D512E",
"6  c #3D512E",
"7  c #224D3D",
"8  c #294835",
"9  c #314235",
"0  c #344F31",
"q  c #344739",
"w  c #354A3D",
"e  c #3C4A3D",
"r  c #3E4630",
"t  c #27533D",
"y  c #2B553E",
"u  c #2E583F",
"i  c #355435",
"p  c #3C5531",
"a  c #3C5936",
"s  c #33553B",
"d  c #34593C",
"f  c #3C5D3C",
"g  c #3B523E",
"h  c #424D29",
"j  c #444C26",
"k  c #43552D",
"l  c #495B2E",
"z  c #434C3E",
"x  c #425A34",
"c  c #4C5C36",
"v  c #465C3E",
"b  c #4B5D3C",
"n  c #435630",
"m  c #505F36",
"M  c #4B6135",
"N  c #4C613D",
"B  c #46633C",
"V  c #536336",
"C  c #526439",
"Z  c #5A6B39",
"A  c #1A4F43",
"S  c #1D5245",
"D  c #1C5348",
"F  c #364D42",
"G  c #3D4E41",
"H  c #235444",
"J  c #2A5743",
"K  c #275845",
"L  c #2B5A44",
"P  c #225749",
"I  c #24594B",
"U  c #2A5D4B",
"Y  c #3D5446",
"T  c #355D41",
"R  c #3A5849",
"E  c #325545",
"W  c #265E51",
"Q  c #2A5F51",
"!  c #315D50",
"~  c #33614A",
"^  c #3D6749",
"/  c #3A6241",
"(  c #2D6253",
")  c #326455",
"_  c #36695B",
"`  c #3A6D5D",
"'  c #356758",
"]  c #3D7263",
"[  c #444F42",
"{  c #445244",
"}  c #4A5446",
"|  c #465C41",
" . c #495E40",
".. c #455648",
"X. c #4A5649",
"o. c #435A4C",
"O. c #4C594B",
"+. c #525B4C",
"@. c #525649",
"#. c #445C50",
"$. c #4C5E51",
"%. c #555E51",
"&. c #5B5F53",
"*. c #4B6142",
"=. c #4E6248",
"-. c #596746",
";. c #456255",
":. c #496354",
">. c #4B6B5C",
",. c #486759",
"<. c #556154",
"1. c #516B5D",
"2. c #62754F",
"3. c #626F55",
"4. c #4F6C61",
"5. c #536E61",
"6. c #417565",
"7. c #4E7464",
"8. c #437769",
"9. c #457B6C",
"0. c #4A7C6D",
"q. c #497868",
"w. c #537264",
"e. c #527967",
"r. c #567568",
"t. c #557C6C",
"y. c #5B7C6D",
"u. c #5A7468",
"i. c #4B7F70",
"p. c #477F71",
"a. c #5B7E70",
"s. c #577F72",
"d. c #63786A",
"f. c #637F71",
"g. c #4C8274",
"h. c #528475",
"j. c #5D8375",
"k. c #518778",
"l. c #568A7B",
"z. c #5B8D7E",
"x. c #5D8778",
"c. c #61806F",
"v. c #618475",
"b. c #648678",
"n. c #658B7C",
"m. c #698B7C",
"M. c #6F8476",
"N. c #5C8F80",
"B. c #5D9182",
"V. c #678E81",
"C. c #6B8E81",
"Z. c #639485",
"A. c #6D9485",
"S. c #6D9689",
"D. c #66998A",
"F. c #6C9C8D",
"G. c #6A9888",
"H. c #719385",
"J. c #729789",
"K. c #729B8C",
"L. c #78998A",
"P. c #6D9F90",
"I. c #759E91",
"U. c #7A9F92",
"Y. c #6EA193",
"T. c #74A394",
"R. c #7AA395",
"E. c #76A798",
"W. c #7AA698",
"Q. c #77A99A",
"!. c #7CAB9C",
"~. c #7EAFA1",
"^. c #7FB1A3",
"/. c #81AC9D",
"(. c #81AEA1",
"). c #83B2A4",
"_. c #84B2A5",
"`. c #86B5A7",
"'. c #85B4A6",
"]. c #83B2A4",
"[. c #89B5A7",
"{. c #87B7A9",
"}. c #86B5A8",
"|. c #87B7A9",
" X c #88B7A9",
".X c #88B7AA",
"XX c #88B7A9",
"oX c #87B8AA",
"OX c #88B8AA",
"+X c #89B9AB",
"@X c #88B9AB",
"#X c #89BAAB",
"$X c #89BAAC",
"%X c #8ABBAD",
"&X c #8BBBAE",
"*X c #8BBDAF",
"=X c #88BCAE",
"-X c #88B9AB",
";X c #8CBEB0",
":X c #8DBEB0",
">X c #8CBEB0",
",X c #8EC0B3",
"<X c #8EC1B3",
"1X c #91C3B5",
"2X c #95C9BB",
/* pixels */
"OXOXOXOXOXOXOXOXOXOXOXOXOXOXOXOXOXOXOXOXOXOXOXOXOXOXOXOXOXOXOXOXOXOXOXOXOXOXOXOXOXOXOXOXOXOXOXOXOXOXOXOXOXOXOXOXOXOXOXOXOXOXOXOX",
"OXOXOXOXOXOXOXOXOXOXOXOXOXOXOXOXOXOXOXOXOXOXOXOXOXOXOXOXOXOXOXOXOXOXOXOXOXOXOXOXOXOXOXOXOXOXOXOXOXOXOXOXOXOXOXOXOXOXOXOXOXOXOXOX",
"OXOXOXOXOXOXOXOXOXOXOXOXOXOXOXOXOXOXOXOXOXOXOXOXOXOXOXOXOXOXOXOXOXOXOXOXOXOXOXOXOXOXOXOXOXOXOXOXOXOXOXOXOXOXOXOXOXOXOXOXOXOXOXOX",
"OXOXOXOXOXOXOXOXOXOXOXOXOXOXOXOXOXOXOXOXOXOXOXOXOXOXOXOXOXOXOXOXOXOXOXOXOXOXOXOXOXOXOXOXOXOXOXOXOXOXOXOXOXOXOXOXOXOXOXOXOXOXOXOX",
"OXOXOXOXOXOXOXOXOXOXOXOXOXOXOXOXOXOXOXOXOXOXOXOXOXOXOXOXOXOXOXOXOXOXOXOXOXOXOXOXOXOXOXOXOXOXOXOXOXOXOXOXOXOXOXOXOXOXOXOXOXOXOXOX",
"OXOXOXOXOXOXOXOXOXOXOXOXOXOXOXOXOXOXOXOXOXOXOXOXOXOXOXOXOXOXOXOXOXOXOXOXOXOXOXOXOXOXOXOXOXOXOXOXOXOXOXOXOXOXOXOXOXOXOXOXOXOXOXOX",
"OXOXOXOXOXOXOXOXOXOXOXOXOXOXOXOXOXOXOXOXOXOXOXOXOXOXOXOXOXOXOXOXOXOXOXOXOXOXOXOXOXOXOXOXOXOXOXOXOXOXOXOXOXOXOXOXOXOXOXOXOXOXOXOX",
"OXOXOXOXOXOXOXOXOXOXOXOXOXOXOXOXOXOXOXOXOXOXOXOXOXOXOXOXOXOXOXOXOXOXOXOXOXOXOXOXOXOXOXOXOXOXOXOXOXOXOXOXOXOXOXOXOXOXOXOXOXOXOXOX",
"OXOXOXOXOXOXOXOXOXOXOXOXOXOXOXOXOXOXOXOXOXOXOXOXOXOXOXOXOXOXOXOXOXOXOXOXOXOXOXOXOXOXOXOXOXOXOXOXOXOXOXOXOXOXOXOXOXOXOXOXOXOXOXOX",
"OXOXOXOXOXOXOXOXOXOXOXOXOXOXOXOXOXOXOXOXOXOXOXOXOXOXOXOXOXOXOXOXOXOXOXOXOXOXOXOXOXOXOXOXOXOXOXOXOXOXOXOXOXOXOXOXOXOXOXOXOXOXOXOX",
"OXOXOXOXOXOXOXOXOXOXOXOXOXOXOXOXOXOXOXOXOXOXOXOXOXOXOXOXOXOXOXOXOXOXOXOXOXOXOXOXOXOXOXOXOXOXOXOXOXOXOXOXOXOXOXOXOXOXOXOXOXOXOXOX",
"OXOXOXOXOXOXOXOXOXOXOXOXOXOXOXOXOXOXOXOXOXOXOXOXOXOXOXOXOXOXOXOXOXOXOXOXOXOXOXOXOXOXOXOXOXOXOXOXOXOXOXOXOXOXOXOXOXOXOXOXOXOXOXOX",
"OXOXOXOXOXOXOXOXOXOXOXOXOXOXOXOXOXOXOXOXOXOXOXOXOXOXOXOXOXOXOXOXOXOXOXOXOXOXOXOXOXOXOXOXOXOXOXOXOXOXOXOXOXOXOXOXOXOXOXOXOXOXOXOX",
"OXOXOXOXOXOXOXOXOXOXOXOXOXOXOXOXOXOXOXOXOXOXOXOXOXOXOXOXOXOXOXOXOXOXOXOXOXOXOXOXOXOXOXOXOXOXOXOXOXOXOXOXOXOXOX$XOXOXOXOXOXOXOXOX",
"OXOXOXOXOXOXOXOXOXOXOXOXOXOXOXOXOXOXOXOXOXOXOXOXOXOXOXOXOXOXOXOX$XOXOXOXOXOXOXOXOXOXOXOXOXOXOXOXOXOXOXOXOXOX}.!.OXOXOXOXOXOXOXOX",
"OXOXOXOXOXOXOXOX).}.OXOXOXOXOXOXOXOXOXOXOXOXOXOXOXOXOXOXOXOXOXOX!.}.OXOXOXOXOXOXOXOXOXOXOXOXOXOXOXOXOXOXOX$X].A.$X XOXOXOXOXOXOX",
"OXOXOXOXOXOX}.$XI.].OXOXOXOXOXOXOXOXOXOXOXOXOXOXOXOXOXOXOXOX X$XA.].$XOXOXOXOXOXOXOXOXOXOXOXOXOXOXOXOXOXOXOX`.m.OXOXOXOXOXOXOXOX",
"OXOXOXOXOXOX X$XS._.OXOXOXOXOXOXOXOXOXOXOXOXOXOXOXOXOXOXOXOXOX$Xj.].OXOXOXOXOXOXOXOXOXOXOXOXOXOXOXOXOXOXOXOX].b.$X XOXOXOXOXOXOX",
"OXOXOXOXOXOX}.;XC.!.$XOXOXOXOXOXOXOXOXOXOXOXOXOXOXOXOXOXOXOX}.*Xv.!.$X XOXOXOXOXOXOXOXOXOXOXOXOXOXOXOX_.).$X`.u.}.$X$XOXOXOXOXOX",
"OXOXOXOXOXOX}.;Xb.!.$XOXOXOXOXOXOXOXOXOXOXOXOXOXOXOXOX$XOXOX}.*Xr.!.$XOXOXOXOXOXOXOXOXOXOXOXOXOXOXOXOX XS.I.].:.(._.!.!.$XOXOXOX",
"OXOXOXOXOXOX}.*Xf.!.$X XOXOXOXOXOXOXOXOXOXOXOXOXOXOXOX).`./.$X).;.].;X_.}.OXOXOXOXOXOXOXOXOXOXOXOXOXOXOX$Xn.A.;.~.R.K.}.OXOXOXOX",
"OXOXOXOXOX`.!.$Xy.].$XoXOXOXOXOXOXOXOXOXOXOXOXOXOXOX$X!.K.n.OX`.$._.T.V.(.OXOXOXOXOXOXOXOXOXOXOXOXOXOX}.%X~.7.Y (.m.!.*XOXOXOXOX",
"OXOXOXOXOX}.W.).:.].}.).}.`.OXOXOXOXOXOXOXOXOXOXOXOX}.*X_.K.m.K.F j.Z.}.OXOXOXOXOXOXOXOXOXOXOXOXOXOX$X$X}.;X,.9 1.W.*X`.`.OXOXOX",
"OXOXOXOXOX`.F.`.,.~.R.n.I.`.OXOXOXOXOXOXOXOXOXOXOXOX$X!.!.;X].w.$ x.1XOXOX XOXOXOXOXOXOXOXOXOXOXOXOX!.!.(.$XW.9 s.<XOXR._.$XOXOX",
"OXOXOXOXOXOXJ.s.o./.b.R.oXOXOXOXOXOXOXOXOXOXOXOXOX}.`.I.R.OX<Xw.#.<X/.!.I.(.OXOXOXOXOXOXOXOXOXOXOXOX_.W.S.(.!.e K.;X`.I.}.}.OXOX",
"OXOXOXOXOXOX*Xx.[ o.F.<X}.OXOXOXOXOXOXOXOXOXOXOXOX(.K.n.K.$X*X5.$.>XH.S.OXOXOXOXOXOXOXOXOXOXOXOXOX}.OX<Xj.J._.e S.<X}.m.!.OXOXOX",
"OXOXOX_._.`.OX}.F ;.;X}.OXOXOXOXOXOXOXOXOXOXOXOXOX}.<XK.c.$X;X5.$.1Xw.Q.*X}.OXOXOXOXOXOXOXOXOXOXOX*X`.R.!.y.R.e C.<Xm.J.$XOXOXOX",
"OXOXOX).R.I./.`...m.;X}.OXOXOXOXOXOXOXOXOXOXOXOXOXOX}.;Xm._.;X:.o.v.A.;X}.OXOXOXOXOXOXOXOXOXOXOX(.T./.J.;XT.:.q j.A.K.<XOX`.OXOX",
"OXOXOXOX;Xn.A.%X{ b.<X}.OX$XOXOXOXOXOXOXOXOXOXOXOX X}.;XS.C.J.{ e w.;X}.OX$XOXOXOXOXOXOXOXOXOX X_.).J.n.(.<Xv.} Y e.<XOX!.!. X_.",
"OXOXOXOX$X!.r. XO.m.*X$X(.J.].OXOXOXOXOXOXOXOX}._.oX/.OX*XI.R z d.=XOX$X`.).OXOXOXOXOXOXOXOXOXOXOX$X*Xy.R.<XK.{ q S.;X*XL.!.S.W.",
"OXOX$X}.}.;XF.1.{ w.2XT.x.!.}.OXOXOXOXOXOXOXOX}./.R.C.H.;X1Xs.; H.;X}./.n.(.OXOXOXOXOXOXOXOXOXOXOX}.;XR.C.2XC.} ..!.*XR.y.E.).$X",
"OX_._./.!.$X<Xa.z 1.J.n.].OX$X$XOXOXOXOXOXOXOXOX$X}.}.m.S.2Xr.9 M.>X_.j.~.$XOXOXOXOXOXOXOXOXOXOXOX}.(.}.y./.j.e X._.K.y.'.*XOX X",
"OX`.R.T.f.!.1XR.+.X.b.;X/.J.).!. XOXOXOXOXOXOXOXOX)._.*Xn.e.#.e y.<XR.Z.<X}.OXOXOXOXOXOXOXOXOXOXOX`.R.*X}.y.Y O.O.u.u.$X$X}.OXOX",
"OXOX$X$X_.v.!./.O.%./.;XR.A.W.!._.OXOXOXOXOXOX X$X/./.$X*XR.o.[ M.2Xv.K.*X}.OXOXOXOXOXOXOXOXOXOXOXOXI.}.$XoXo.&.+.Y ~.*X}.`.OX$X",
"OXOXOX}.$X_.t.:.{ o.!.1Xc.n.<XOXOXOXOXOXOXOXOXOX$X).R.*X`.1X7.e d.w.m.;X}.OXOXOXOXOXOXOXOXOXOXOX}.$XW.R.$X;Xz.{ X.e.1X_.$XR./._.",
"OX)./.$XOXOX<XC.{ ..).!.y.$XOX}.OXOXOXOXOXOXOXOX`.$XF.).OX<Xs.{ X.5.>XOXoX`.OXOXOXOXOXOXOXOXOXOX}./.E.n.*X$XR.O.{ J.). XK.j.U.}.",
"OX}.S.K. X}.$X!.Y O.4.w.).$XOXOXOXOXOXOXOXOXOXOX_.(.A.K.*X;XV.q +.R.*XOXW./.$XOXOXOXOXOXOXOXOXOXOX}.I.r.[.;XA.@.G /.K.n.n.$X$XOX",
"OXOX;Xj.R.$XOX(.$.X.w ~.*XOX_.}.OXOXOXOXOXOXOXOXOX_.n.b.;X*XS.[ +.W._.!.J.OXOXOXOXOXOXOXOXOXOXOXOXOX<XT.y.2XS.{ O.K.5.K.*XOX XOX",
"OX}.;XT.S.<X}._.o.[ A.;X}.).R.OXOXOXOXOXOXOXOXOXOXOX1Xb.S.2XC.w O.R.[.H._.$XOXOXOXOXOXOXOXOXOXOXOXOX}.(.>.a.R.{ O.F S.1X}.OXOXOX",
"OXOXOX`.y.!.;X).$.+.!.$X/.K.!.$X XOXOXOXOXOXOXOXOXOX}.T.o.R.j.q %.!.L.J.*X}.OXOXOXOXOXOXOXOXOXOXOXOXOX`.].t.e O.{ ;.*X`.OXOXOXOX",
"OXOX}.$X(.w.`._...%.R.1XL.R.*X}.OXOXOXOXOXOXOXOXOXOXoX`.Q.:...+.<.>.j.<X}.OXOXOXOXOXOXOXOXOXOXOXOXOXOXOX*XOXR O.+.:.t.}.OXOXOXOX",
"OXOXOXOX].j.>.V.G +.K.!.b.}.OXOXOXOXOXOXOXOXOXOXOXOXOX}.1XI.9 X.O.>.>X XOXOXOXOXOXOXOXOXOXOXOXOXOXOXOXOX`.<Xv.z <.G T.*X}.OXOXOX",
"OXOXOXOXOX$XF.9 e %.<.,.].$X}.OXOXOXOXOXOXOXOXOXOXOXOXOX`.<Xr.z { S.;X}.OXOXOXOXOXOXOXOXOXOXOXOXOXOXOXOX}.;XS.} { >.<X}.OXOXOXOX",
"OXOXOX}.}.OX<Xe.e O.w !.*X}.OXOX$XOXOXOX$XOXOXOXOX}.OXOX}.*XZ.e %.F.;X}.OXOXOXOXOX$XOXOXOXOX}.OXOXOXOX].OX$X!.o.+.r.;XOXOXOX$XOX",
"}.E.`.`.E.`.*XQ.w O.:.$X XOXoXOX!.`.$X^.Q.oX!.!.$XQ.).}.OX'.j.w X.b.<X}.OX).^.$X'.Q.`.].E.$X!.Q.}.OX}.T.).*XE...{ ,.oX!.OXOX!.~.",
"T.D.].!.F.E.$XW.{ { 5.*X].Q.oX).F.Q.`.D.F.!.D.Q.].G.T.(.$XQ.q.G { j.^.).OXT.F.}.T.D.!.P.F.oXF.T.!.$X~.Z.Y.oX~...{ :.!.G.).!.D.T.",
"k.9.B.z.G.Q.~.F.G } w.~.E.z.E.D.B.N.!.g.h.Z.p.g.D.l.~.E.].Z.! { +.y.D.G.T.B.l.E.B.9.Z.k.8.D.h.!.E.^.T.6.g.Q.F.{ X.o.B.z.D.Y.9.z.",
"8.8.] 6.0.i.l.t.w { :.B.h.( 9.0.8.9.F.6.` 6.0._ 9.6.h.g.z.8.R } +.>.] _ h.6.9.Z.l._ ] 0.` 6.] h.i.z.g._ ) h.h.G X...6.0.h.D._ ] ",
"Q Q _ ) ( ( ( J e X.F ) ( Q W ( ( U ` ) ( ( Q ) ) ( ( ( W Q J g &.E Q W ( ( ( ) _ ( ( Q ( ' ( ( ( ( W ( ( Q ) g O.{ Q ( ( ` ~ ( ",
"U P I I P ~ ~ 7 a -.| H D I P P P I U P U I P I P I P P P I t | <.8 P I P P I U P I U P I P I I P P I I P H T *.%.v T U I U ^ U ",
"f K K L L / d 0 x -.-.T K S S S U H D H H S H H H K H H H H 8 O.3.a , S A K K S H H S H H S H H H A S H K y 0 b 3.N d ^ K d f y ",
"f 7 s c x x x M l V Z B f T 7 u f H H y J y J u f d y T d d 5 =.2.v f J y f y H K t J J H u u 7 L y s d d x k n m m x f d f p p ",
"< 2 3 4 1 4 j 3 3 1 h k h p i 6 3 i i p p 6 p p k k p M k k k b c k c i k k p i p p 6 i i x p i a p k a 2 < 3 h h 4 j 2 4 3 h k ",
"c C C b b V V N C b m c c V b c c V V m c m V C V C V C C C V V V V c m c V V M V c c V C C V Z V C c C N b c c b c c c c V c c ",
"*. .v | *.*.N *.b N  .*. .|  .*.b |  .| *.*. .v | | *.N *.b  . .*.*. .| *.b | |  .| *. .v v | *.*.N *.b  .*.*. .v *. .b | b | *.",
"1 1 - 1 = = 1 1 1 = = 1 1 = = = 1 1 - 1 = < 1 - - - = 1 1 1 = = = 1 1 = = 1 1 - 1 - < 1 1 - 1 = = 1 1 < = = 1 1 = = = r - - 1 = ",
"% O O % X O + O + & % & + % + X O o O @ & & O O & o o + O O @ & + & O & X O O O + & & + o & O X + + O @ & + & O & o o O O O @ * ",
"& O o & o o o : O X + & o # & X o O : o o & % X & O X o @ & X O & O o & o o O : O X + & o # & X o O : o X & # X & O X o @ & X O ",
"% O . O o o O   o O O % o X O X o O   O O + % X o O X O o X O O % O . O o o O   o O O % o X O X o O   O O + % X o O X O o X O O ",
"O % X X % & # O O O * O + . o & % # o O + & + o X O & # O o o & % % X X % & # O O O * O + . o & % # o O + & + o X O & # O o o & ",
"o . & * + X O O * # X X . > & O X O + * o X X o > + o o O & & X X . & * + X O O * # X X . > & O X O + * o X X o > + o o O & & o ",
"& % & o o O X & + O % & & % X O o o & O O & % & O X O X # & O # & % & o o O X & + O % & & % X O o o & O O & % & O X O X # & O % ",
"O & # o O O O O O # O O * o O O O O O & O O % & X O O O O O % O O & # o O O O O O # O O * o O O O O O & O O % & X O O O O O % # ",
"o % # X O O o O * > O O % O o O o o % * * X % % o o O o O & > % o % # X O O o O * > O O % O o O o o % * * X % % o o O o O & > & "
};
